SourceSans_Black-Italic.ufo
<glyph name="plus" format="2">
	<unicode hex="002B"/>
	<advance width="520"/>
	<outline>
		<contour>
			<point x="214" y="92" type="line"/>
			<point x="330" y="92" type="line"/>
			<point x="330" y="274" type="line"/>
			<point x="496" y="274" type="line"/>
			<point x="496" y="386" type="line"/>
			<point x="330" y="386" type="line"/>
			<point x="330" y="568" type="line"/>
			<point x="214" y="568" type="line"/>
			<point x="214" y="386" type="line"/>
			<point x="48" y="386" type="line"/>
			<point x="48" y="274" type="line"/>
			<point x="214" y="274" type="line"/>
		</contour>
	</outline>
</glyph>
<glyph name="eight" format="2">
	<unicode hex="0038"/>
	<advance width="520"/>
	<outline>
		<contour>
			<point x="228" y="-12" type="curve" smooth="yes"/>
			<point x="362" y="-12"/>
			<point x="480" y="62"/>
			<point x="480" y="178" type="curve" smooth="yes"/>
			<point x="480" y="242"/>
			<point x="448" y="290"/>
			<point x="396" y="324" type="curve"/>
			<point x="396" y="328" type="line"/>
			<point x="468" y="366"/>
			<point x="514" y="422"/>
			<point x="514" y="498" type="curve" smooth="yes"/>
			<point x="514" y="603"/>
			<point x="422" y="646"/>
			<point x="334" y="646" type="curve" smooth="yes"/>
			<point x="214" y="646"/>
			<point x="110" y="576"/>
			<point x="110" y="460" type="curve" smooth="yes"/>
			<point x="110" y="410"/>
			<point x="134" y="372"/>
			<point x="172" y="330" type="curve"/>
			<point x="172" y="326" type="line"/>
			<point x="94" y="296"/>
			<point x="32" y="237"/>
			<point x="32" y="152" type="curve" smooth="yes"/>
			<point x="32" y="35"/>
			<point x="140" y="-12"/>
		</contour>
		<contour>
			<point x="326" y="374" type="curve"/>
			<point x="274" y="403"/>
			<point x="250" y="428"/>
			<point x="250" y="470" type="curve" smooth="yes"/>
			<point x="250" y="510"/>
			<point x="282" y="534"/>
			<point x="322" y="534" type="curve" smooth="yes"/>
			<point x="358" y="534"/>
			<point x="378" y="506"/>
			<point x="378" y="470" type="curve" smooth="yes"/>
			<point x="378" y="427"/>
			<point x="353" y="399"/>
		</contour>
		<contour>
			<point x="246" y="98" type="curve" smooth="yes"/>
			<point x="202" y="98"/>
			<point x="174" y="128"/>
			<point x="174" y="174" type="curve" smooth="yes"/>
			<point x="174" y="219"/>
			<point x="203" y="252"/>
			<point x="236" y="278" type="curve"/>
			<point x="298" y="241"/>
			<point x="334" y="215"/>
			<point x="334" y="174" type="curve" smooth="yes"/>
			<point x="334" y="122"/>
			<point x="292" y="98"/>
		</contour>
	</outline>
</glyph>
<glyph name="greater" format="2">
	<unicode hex="003E"/>
	<advance width="520"/>
	<outline>
		<contour>
			<point x="48" y="98" type="line"/>
			<point x="498" y="276" type="line"/>
			<point x="498" y="386" type="line"/>
			<point x="48" y="564" type="line"/>
			<point x="48" y="434" type="line"/>
			<point x="206" y="380" type="line"/>
			<point x="336" y="334" type="line"/>
			<point x="336" y="330" type="line"/>
			<point x="206" y="284" type="line"/>
			<point x="48" y="230" type="line"/>
		</contour>
	</outline>
</glyph>
<glyph name="L" format="2">
	<unicode hex="004C"/>
	<advance width="514"/>
	<outline>
		<contour>
			<point x="26" y="0" type="line"/>
			<point x="422" y="0" type="line"/>
			<point x="448" y="134" type="line"/>
			<point x="212" y="134" type="line"/>
			<point x="316" y="650" type="line"/>
			<point x="156" y="650" type="line"/>
		</contour>
	</outline>
	<anchor name="aboveUC" x="240" y="672"/>
	<anchor name="belowLC" x="230" y="-22"/>
	<anchor name="center" x="180" y="350"/>
</glyph>
<glyph name="Q" format="2">
	<unicode hex="0051"/>
	<advance width="670"/>
	<outline>
		<contour>
			<point x="308" y="-12" type="curve" smooth="yes"/>
			<point x="480" y="-12"/>
			<point x="644" y="144"/>
			<point x="644" y="386" type="curve" smooth="yes"/>
			<point x="644" y="562"/>
			<point x="542" y="662"/>
			<point x="392" y="662" type="curve" smooth="yes"/>
			<point x="220" y="662"/>
			<point x="56" y="506"/>
			<point x="56" y="264" type="curve" smooth="yes"/>
			<point x="56" y="88"/>
			<point x="158" y="-12"/>
		</contour>
		<contour>
			<point x="316" y="120" type="curve" smooth="yes"/>
			<point x="256" y="120"/>
			<point x="220" y="172"/>
			<point x="220" y="274" type="curve" smooth="yes"/>
			<point x="220" y="424"/>
			<point x="310" y="524"/>
			<point x="384" y="524" type="curve" smooth="yes"/>
			<point x="444" y="524"/>
			<point x="480" y="470"/>
			<point x="480" y="376" type="curve" smooth="yes"/>
			<point x="480" y="218"/>
			<point x="390" y="120"/>
		</contour>
		<contour>
			<point x="484" y="-188" type="curve" smooth="yes"/>
			<point x="524" y="-188"/>
			<point x="564" y="-180"/>
			<point x="588" y="-168" type="curve"/>
			<point x="562" y="-50" type="line"/>
			<point x="542" y="-56"/>
			<point x="526" y="-60"/>
			<point x="502" y="-60" type="curve" smooth="yes"/>
			<point x="448" y="-60"/>
			<point x="373" y="-34"/>
			<point x="356" y="32" type="curve"/>
			<point x="194" y="32" type="line"/>
			<point x="243" y="-118"/>
			<point x="350" y="-188"/>
		</contour>
	</outline>
	<anchor name="aboveUC" x="410" y="672"/>
	<anchor name="belowLC" x="250" y="-182"/>
</glyph>
<glyph name="S" format="2">
	<unicode hex="0053"/>
	<advance width="538"/>
	<outline>
		<contour>
			<point x="240" y="-12" type="curve" smooth="yes"/>
			<point x="396" y="-12"/>
			<point x="494" y="86"/>
			<point x="494" y="204" type="curve" smooth="yes"/>
			<point x="494" y="280"/>
			<point x="468" y="318"/>
			<point x="404" y="358" type="curve" smooth="yes"/>
			<point x="346" y="394" type="line" smooth="yes"/>
			<point x="292" y="428"/>
			<point x="266" y="440"/>
			<point x="266" y="470" type="curve" smooth="yes"/>
			<point x="266" y="500"/>
			<point x="288" y="524"/>
			<point x="334" y="524" type="curve" smooth="yes"/>
			<point x="376" y="524"/>
			<point x="412" y="502"/>
			<point x="446" y="468" type="curve"/>
			<point x="536" y="560" type="line"/>
			<point x="486" y="624"/>
			<point x="412" y="662"/>
			<point x="336" y="662" type="curve" smooth="yes"/>
			<point x="210" y="662"/>
			<point x="102" y="568"/>
			<point x="102" y="452" type="curve" smooth="yes"/>
			<point x="102" y="372"/>
			<point x="140" y="324"/>
			<point x="202" y="286" type="curve" smooth="yes"/>
			<point x="254" y="254" type="line" smooth="yes"/>
			<point x="302" y="224"/>
			<point x="328" y="210"/>
			<point x="328" y="176" type="curve" smooth="yes"/>
			<point x="328" y="144"/>
			<point x="298" y="126"/>
			<point x="256" y="126" type="curve" smooth="yes"/>
			<point x="198" y="126"/>
			<point x="140" y="156"/>
			<point x="104" y="202" type="curve"/>
			<point x="10" y="112" type="line"/>
			<point x="74" y="24"/>
			<point x="162" y="-12"/>
		</contour>
	</outline>
	<anchor name="aboveUC" x="360" y="692"/>
	<anchor name="baseLC" x="240" y="0"/>
	<anchor name="belowLC" x="230" y="-22"/>
</glyph>
<glyph name="Z" format="2">
	<unicode hex="005A"/>
	<advance width="530"/>
	<outline>
		<contour>
			<point x="-6" y="0" type="line"/>
			<point x="452" y="0" type="line"/>
			<point x="480" y="134" type="line"/>
			<point x="216" y="134" type="line"/>
			<point x="542" y="554" type="line"/>
			<point x="562" y="650" type="line"/>
			<point x="130" y="650" type="line"/>
			<point x="104" y="516" type="line"/>
			<point x="344" y="516" type="line"/>
			<point x="14" y="96" type="line"/>
		</contour>
	</outline>
	<anchor name="aboveUC" x="350" y="672"/>
	<anchor name="belowLC" x="230" y="-22"/>
</glyph>
<glyph name="n" format="2">
	<unicode hex="006E"/>
	<advance width="562"/>
	<outline>
		<contour>
			<point x="8" y="0" type="line"/>
			<point x="168" y="0" type="line"/>
			<point x="230" y="320" type="line"/>
			<point x="266" y="358"/>
			<point x="290" y="376"/>
			<point x="318" y="376" type="curve" smooth="yes"/>
			<point x="344" y="376"/>
			<point x="360" y="362"/>
			<point x="360" y="334" type="curve" smooth="yes"/>
			<point x="360" y="322"/>
			<point x="356" y="308"/>
			<point x="352" y="290" type="curve" smooth="yes"/>
			<point x="294" y="0" type="line"/>
			<point x="454" y="0" type="line"/>
			<point x="516" y="310" type="line" smooth="yes"/>
			<point x="521" y="334"/>
			<point x="524" y="360"/>
			<point x="524" y="382" type="curve" smooth="yes"/>
			<point x="524" y="468"/>
			<point x="488" y="512"/>
			<point x="406" y="512" type="curve" smooth="yes"/>
			<point x="342" y="512"/>
			<point x="288" y="476"/>
			<point x="242" y="436" type="curve"/>
			<point x="238" y="436" type="line"/>
			<point x="238" y="500" type="line"/>
			<point x="108" y="500" type="line"/>
		</contour>
	</outline>
	<anchor name="aboveLC" x="340" y="522"/>
	<anchor name="belowLC" x="230" y="-22"/>
</glyph>
<glyph name="w" format="2">
	<unicode hex="0077"/>
	<advance width="764"/>
	<outline>
		<contour>
			<point x="94" y="0" type="line"/>
			<point x="276" y="0" type="line"/>
			<point x="348" y="186" type="line" smooth="yes"/>
			<point x="368" y="238"/>
			<point x="382" y="284"/>
			<point x="400" y="342" type="curve"/>
			<point x="404" y="342" type="line"/>
			<point x="401" y="284"/>
			<point x="398" y="236"/>
			<point x="398" y="186" type="curve"/>
			<point x="398" y="0" type="line"/>
			<point x="580" y="0" type="line"/>
			<point x="788" y="500" type="line"/>
			<point x="640" y="500" type="line"/>
			<point x="562" y="278" type="line" smooth="yes"/>
			<point x="544" y="228"/>
			<point x="528" y="178"/>
			<point x="510" y="126" type="curve"/>
			<point x="506" y="126" type="line"/>
			<point x="506" y="180"/>
			<point x="508" y="228"/>
			<point x="508" y="278" type="curve"/>
			<point x="500" y="500" type="line"/>
			<point x="362" y="500" type="line"/>
			<point x="274" y="278" type="line" smooth="yes"/>
			<point x="254" y="228"/>
			<point x="238" y="178"/>
			<point x="220" y="126" type="curve"/>
			<point x="216" y="126" type="line"/>
			<point x="220" y="178"/>
			<point x="226" y="228"/>
			<point x="226" y="278" type="curve" smooth="yes"/>
			<point x="228" y="500" type="line"/>
			<point x="73" y="500" type="line"/>
		</contour>
	</outline>
	<anchor name="aboveLC" x="440" y="522"/>
	<anchor name="aboverightLC" x="720" y="522"/>
	<anchor name="belowLC" x="330" y="-22"/>
</glyph>
<glyph name="exclamdown" format="2">
	<unicode hex="00A1"/>
	<advance width="350"/>
	<outline>
		<contour>
			<point x="16" y="-170" type="line"/>
			<point x="176" y="-170" type="line"/>
			<point x="234" y="262" type="line"/>
			<point x="130" y="262" type="line"/>
			<point x="48" y="-30" type="line"/>
		</contour>
		<contour>
			<point x="198" y="316" type="curve" smooth="yes"/>
			<point x="264" y="316"/>
			<point x="308" y="374"/>
			<point x="308" y="428" type="curve" smooth="yes"/>
			<point x="308" y="478"/>
			<point x="276" y="512"/>
			<point x="228" y="512" type="curve" smooth="yes"/>
			<point x="162" y="512"/>
			<point x="118" y="456"/>
			<point x="118" y="400" type="curve" smooth="yes"/>
			<point x="118" y="352"/>
			<point x="150" y="316"/>
		</contour>
	</outline>
</glyph>
<glyph name="sterling" format="2">
	<unicode hex="00A3"/>
	<advance width="520"/>
	<outline>
		<contour>
			<point x="6" y="0" type="line"/>
			<point x="452" y="0" type="line"/>
			<point x="476" y="134" type="line"/>
			<point x="250" y="134" type="line"/>
			<point x="250" y="138" type="line"/>
			<point x="290" y="186"/>
			<point x="306" y="230"/>
			<point x="306" y="296" type="curve" smooth="yes"/>
			<point x="306" y="323"/>
			<point x="298" y="357"/>
			<point x="298" y="384" type="curve" smooth="yes"/>
			<point x="298" y="480"/>
			<point x="340" y="518"/>
			<point x="388" y="518" type="curve" smooth="yes"/>
			<point x="418" y="518"/>
			<point x="444" y="504"/>
			<point x="466" y="476" type="curve"/>
			<point x="556" y="560" type="line"/>
			<point x="520" y="614"/>
			<point x="462" y="646"/>
			<point x="396" y="646" type="curve" smooth="yes"/>
			<point x="260" y="646"/>
			<point x="150" y="550"/>
			<point x="150" y="408" type="curve" smooth="yes"/>
			<point x="150" y="369"/>
			<point x="162" y="317"/>
			<point x="162" y="278" type="curve" smooth="yes"/>
			<point x="162" y="194"/>
			<point x="108" y="132"/>
			<point x="26" y="98" type="curve"/>
		</contour>
		<contour>
			<point x="66" y="262" type="line"/>
			<point x="420" y="262" type="line"/>
			<point x="442" y="376" type="line"/>
			<point x="160" y="376" type="line"/>
			<point x="86" y="370" type="line"/>
		</contour>
	</outline>
</glyph>
<glyph name="brokenbar" format="2">
	<unicode hex="00A6"/>
	<advance width="264"/>
	<outline>
		<contour>
			<point x="86" y="316" type="line"/>
			<point x="184" y="316" type="line"/>
			<point x="184" y="750" type="line"/>
			<point x="86" y="750" type="line"/>
		</contour>
		<contour>
			<point x="86" y="-250" type="line"/>
			<point x="184" y="-250" type="line"/>
			<point x="184" y="202" type="line"/>
			<point x="86" y="202" type="line"/>
		</contour>
	</outline>
</glyph>
<glyph name="registered" format="2">
	<unicode hex="00AE"/>
	<advance width="458"/>
	<outline>
		<contour>
			<point x="262" y="308" type="curve" smooth="yes"/>
			<point x="388" y="308"/>
			<point x="474" y="420"/>
			<point x="474" y="536" type="curve" smooth="yes"/>
			<point x="472" y="640"/>
			<point x="390" y="716"/>
			<point x="296" y="716" type="curve" smooth="yes"/>
			<point x="168" y="716"/>
			<point x="84" y="604"/>
			<point x="84" y="488" type="curve" smooth="yes"/>
			<point x="84" y="384"/>
			<point x="166" y="308"/>
		</contour>
		<contour>
			<point x="266" y="360" type="curve" smooth="yes"/>
			<point x="190" y="360"/>
			<point x="140" y="418"/>
			<point x="140" y="492" type="curve" smooth="yes"/>
			<point x="140" y="584"/>
			<point x="202" y="664"/>
			<point x="292" y="664" type="curve" smooth="yes"/>
			<point x="368" y="664"/>
			<point x="418" y="606"/>
			<point x="418" y="532" type="curve" smooth="yes"/>
			<point x="418" y="440"/>
			<point x="356" y="360"/>
		</contour>
		<contour>
			<point x="180" y="416" type="line"/>
			<point x="240" y="416" type="line"/>
			<point x="252" y="474" type="line"/>
			<point x="276" y="474" type="line"/>
			<point x="292" y="416" type="line"/>
			<point x="352" y="416" type="line"/>
			<point x="328" y="488" type="line"/>
			<point x="360" y="500"/>
			<point x="376" y="526"/>
			<point x="376" y="552" type="curve" smooth="yes"/>
			<point x="376" y="588"/>
			<point x="348" y="610"/>
			<point x="308" y="610" type="curve" smooth="yes"/>
			<point x="220" y="610" type="line"/>
		</contour>
		<contour>
			<point x="260" y="516" type="line"/>
			<point x="270" y="566" type="line"/>
			<point x="286" y="566" type="line" smooth="yes"/>
			<point x="304" y="566"/>
			<point x="310" y="558"/>
			<point x="310" y="546" type="curve" smooth="yes"/>
			<point x="310" y="530"/>
			<point x="298" y="516"/>
			<point x="274" y="516" type="curve" smooth="yes"/>
		</contour>
	</outline>
</glyph>
<glyph name="ae" format="2">
	<unicode hex="00E6"/>
	<advance width="752"/>
	<outline>
		<contour>
			<point x="154" y="-12" type="curve" smooth="yes"/>
			<point x="226" y="-12"/>
			<point x="280" y="16"/>
			<point x="337" y="63" type="curve"/>
			<point x="366" y="22"/>
			<point x="426" y="-12"/>
			<point x="496" y="-12" type="curve" smooth="yes"/>
			<point x="566" y="-12"/>
			<point x="628" y="10"/>
			<point x="670" y="44" type="curve"/>
			<point x="618" y="138" type="line"/>
			<point x="596" y="122"/>
			<point x="558" y="110"/>
			<point x="530" y="110" type="curve" smooth="yes"/>
			<point x="476" y="110"/>
			<point x="434" y="133"/>
			<point x="436" y="202" type="curve"/>
			<point x="698" y="202" type="line"/>
			<point x="706" y="216"/>
			<point x="724" y="272"/>
			<point x="724" y="322" type="curve" smooth="yes"/>
			<point x="724" y="426"/>
			<point x="680" y="512"/>
			<point x="558" y="512" type="curve" smooth="yes"/>
			<point x="510" y="512"/>
			<point x="461" y="492"/>
			<point x="418" y="456" type="curve"/>
			<point x="392" y="496"/>
			<point x="341" y="512"/>
			<point x="276" y="512" type="curve" smooth="yes"/>
			<point x="224" y="512"/>
			<point x="150" y="490"/>
			<point x="94" y="462" type="curve"/>
			<point x="142" y="352" type="line"/>
			<point x="188" y="376"/>
			<point x="224" y="388"/>
			<point x="256" y="388" type="curve" smooth="yes"/>
			<point x="295" y="388"/>
			<point x="318" y="370"/>
			<point x="318" y="326" type="curve" smooth="yes"/>
			<point x="318" y="322"/>
			<point x="317" y="317"/>
			<point x="316" y="314" type="curve"/>
			<point x="154" y="310"/>
			<point x="18" y="262"/>
			<point x="18" y="114" type="curve" smooth="yes"/>
			<point x="18" y="38"/>
			<point x="76" y="-12"/>
		</contour>
		<contour>
			<point x="220" y="110" type="curve" smooth="yes"/>
			<point x="192" y="110"/>
			<point x="174" y="124"/>
			<point x="174" y="146" type="curve" smooth="yes"/>
			<point x="174" y="184"/>
			<point x="208" y="216"/>
			<point x="296" y="218" type="curve"/>
			<point x="294" y="194"/>
			<point x="296" y="176"/>
			<point x="298" y="158" type="curve"/>
			<point x="272" y="126"/>
			<point x="244" y="110"/>
		</contour>
		<contour>
			<point x="448" y="306" type="line"/>
			<point x="470" y="364"/>
			<point x="504" y="390"/>
			<point x="538" y="390" type="curve" smooth="yes"/>
			<point x="580" y="390"/>
			<point x="594" y="364"/>
			<point x="594" y="330" type="curve" smooth="yes"/>
			<point x="594" y="321"/>
			<point x="592" y="315"/>
			<point x="590" y="306" type="curve"/>
		</contour>
	</outline>
	<anchor name="aboveLC" x="440" y="522"/>
	<anchor name="belowLC" x="340" y="-22"/>
</glyph>
<glyph name="Fhook" format="2">
	<unicode hex="0191"/>
	<advance width="516"/>
	<outline>
		<contour>
			<point x="26" y="0" type="line"/>
			<point x="186" y="0" type="line"/>
			<point x="236" y="248" type="line"/>
			<point x="438" y="248" type="line"/>
			<point x="464" y="382" type="line"/>
			<point x="262" y="382" type="line"/>
			<point x="288" y="516" type="line"/>
			<point x="526" y="516" type="line"/>
			<point x="552" y="650" type="line"/>
			<point x="156" y="650" type="line"/>
		</contour>
	</outline>
	<anchor name="aboveUC" x="360" y="672"/>
	<anchor name="belowLC" x="110" y="-22"/>
</glyph>
<glyph name="Khook" format="2">
	<unicode hex="0198"/>
	<advance width="612"/>
	<outline>
		<contour>
			<point x="26" y="0" type="line"/>
			<point x="186" y="0" type="line"/>
			<point x="222" y="180" type="line"/>
			<point x="306" y="276" type="line"/>
			<point x="402" y="0" type="line"/>
			<point x="568" y="0" type="line"/>
			<point x="424" y="376" type="line"/>
			<point x="658" y="650" type="line"/>
			<point x="484" y="650" type="line"/>
			<point x="271" y="404" type="line"/>
			<point x="267" y="404" type="line"/>
			<point x="316" y="650" type="line"/>
			<point x="156" y="650" type="line"/>
		</contour>
		<component base="Izhitsa" xOffset="-30"/>
	</outline>
	<anchor name="aboverightUC" x="620" y="672"/>
	<anchor name="aboveUC" x="400" y="672"/>
	<anchor name="belowLC" x="300" y="-22"/>
</glyph>
<glyph name="khook" format="2">
	<unicode hex="0199"/>
	<advance width="544"/>
	<outline>
		<contour>
			<point x="8" y="0" type="line"/>
			<point x="168" y="0" type="line"/>
			<point x="192" y="118" type="line"/>
			<point x="260" y="186" type="line"/>
			<point x="328" y="0" type="line"/>
			<point x="488" y="0" type="line"/>
			<point x="370" y="278" type="line"/>
			<point x="428" y="342" type="line" smooth="yes"/>
			<point x="444" y="360"/>
			<point x="456" y="362"/>
			<point x="468" y="362" type="curve" smooth="yes"/>
			<point x="480" y="362"/>
			<point x="488" y="360"/>
			<point x="495" y="357" type="curve"/>
			<point x="539" y="504" type="line"/>
			<point x="526" y="508"/>
			<point x="506" y="512"/>
			<point x="472" y="512" type="curve" smooth="yes"/>
			<point x="428" y="512"/>
			<point x="394" y="500"/>
			<point x="364" y="466" type="curve" smooth="yes"/>
			<point x="236" y="320" type="line"/>
			<point x="232" y="320" type="line"/>
			<point x="308" y="696" type="line"/>
			<point x="148" y="696" type="line"/>
		</contour>
	</outline>
	<anchor name="aboverightLC" x="540" y="522"/>
	<anchor name="aboveUC" x="380" y="722"/>
	<anchor name="belowLC" x="240" y="-22"/>
</glyph>
<glyph name="lambdabar" format="2">
	<unicode hex="019B"/>
	<advance width="518"/>
	<outline>
		<contour>
			<point x="122" y="416" type="line"/>
			<point x="516" y="572" type="line"/>
			<point x="486" y="646" type="line"/>
			<point x="92" y="490" type="line"/>
		</contour>
		<component base="lambda.latin"/>
	</outline>
	<anchor name="aboverightUC" x="440" y="672"/>
	<anchor name="aboveUC" x="290" y="722"/>
	<anchor name="belowLC" x="230" y="-22"/>
</glyph>
<glyph name="Yhook" format="2">
	<unicode hex="01B3"/>
	<advance width="528"/>
	<outline>
		<contour>
			<point x="136" y="0" type="line"/>
			<point x="296" y="0" type="line"/>
			<point x="342" y="228" type="line"/>
			<point x="618" y="650" type="line"/>
			<point x="446" y="650" type="line"/>
			<point x="368" y="508" type="line" smooth="yes"/>
			<point x="340" y="458"/>
			<point x="318" y="414"/>
			<point x="292" y="362" type="curve"/>
			<point x="288" y="362" type="line"/>
			<point x="280" y="414"/>
			<point x="274" y="456"/>
			<point x="266" y="506" type="curve" smooth="yes"/>
			<point x="244" y="650" type="line"/>
			<point x="78" y="650" type="line"/>
			<point x="182" y="228" type="line"/>
		</contour>
		<component base="Izhitsa" xOffset="-40"/>
	</outline>
	<anchor name="aboverightUC" x="570" y="672"/>
	<anchor name="aboveUC" x="350" y="672"/>
	<anchor name="belowLC" x="220" y="-22"/>
</glyph>
<glyph name="Jstroke" format="2">
	<unicode hex="0248"/>
	<advance width="524"/>
	<outline>
		<contour>
			<point x="180" y="314" type="line"/>
			<point x="518" y="314" type="line"/>
			<point x="538" y="416" type="line"/>
			<point x="292" y="416" type="line"/>
			<point x="200" y="410" type="line"/>
		</contour>
		<component base="J"/>
	</outline>
	<anchor name="aboveUC" x="440" y="672"/>
	<anchor name="belowLC" x="190" y="-22"/>
</glyph>
<glyph name="ramshorn" format="2">
	<unicode hex="0264"/>
	<advance width="568"/>
	<outline>
		<contour>
			<point x="236" y="-12" type="curve" smooth="yes"/>
			<point x="386" y="-12"/>
			<point x="470" y="90"/>
			<point x="470" y="194" type="curve" smooth="yes"/>
			<point x="470" y="246"/>
			<point x="441" y="300"/>
			<point x="402" y="348" type="curve"/>
			<point x="432" y="374"/>
			<point x="454" y="384"/>
			<point x="478" y="384" type="curve" smooth="yes"/>
			<point x="496" y="384"/>
			<point x="510" y="380"/>
			<point x="524" y="372" type="curve"/>
			<point x="586" y="486" type="line"/>
			<point x="568" y="502"/>
			<point x="532" y="512"/>
			<point x="496" y="512" type="curve" smooth="yes"/>
			<point x="444" y="512"/>
			<point x="390" y="490"/>
			<point x="320" y="432" type="curve"/>
			<point x="270" y="485"/>
			<point x="212" y="512"/>
			<point x="152" y="512" type="curve" smooth="yes"/>
			<point x="114" y="512"/>
			<point x="78" y="504"/>
			<point x="52" y="490" type="curve"/>
			<point x="90" y="372" type="line"/>
			<point x="100" y="379"/>
			<point x="118" y="384"/>
			<point x="130" y="384" type="curve" smooth="yes"/>
			<point x="160" y="384"/>
			<point x="184" y="378"/>
			<point x="210" y="352" type="curve"/>
			<point x="114" y="278"/>
			<point x="66" y="216"/>
			<point x="66" y="138" type="curve" smooth="yes"/>
			<point x="66" y="36"/>
			<point x="142" y="-12"/>
		</contour>
		<contour>
			<point x="256" y="108" type="curve" smooth="yes"/>
			<point x="234" y="108"/>
			<point x="220" y="124"/>
			<point x="220" y="154" type="curve" smooth="yes"/>
			<point x="220" y="188"/>
			<point x="242" y="235"/>
			<point x="286" y="270" type="curve"/>
			<point x="305" y="248"/>
			<point x="316" y="218"/>
			<point x="316" y="190" type="curve" smooth="yes"/>
			<point x="316" y="147"/>
			<point x="293" y="108"/>
		</contour>
	</outline>
	<anchor name="aboveLC" x="330" y="522"/>
	<anchor name="belowLC" x="230" y="-22"/>
</glyph>
<glyph name="hturned" format="2">
	<unicode hex="0265"/>
	<advance width="558"/>
	<outline>
		<contour>
			<point x="252" y="-176" type="line"/>
			<point x="412" y="-176" type="line"/>
			<point x="548" y="500" type="line"/>
			<point x="388" y="500" type="line"/>
			<point x="326" y="180" type="line"/>
			<point x="290" y="142"/>
			<point x="266" y="124"/>
			<point x="238" y="124" type="curve" smooth="yes"/>
			<point x="212" y="124"/>
			<point x="196" y="138"/>
			<point x="196" y="166" type="curve" smooth="yes"/>
			<point x="196" y="178"/>
			<point x="200" y="192"/>
			<point x="204" y="210" type="curve" smooth="yes"/>
			<point x="262" y="500" type="line"/>
			<point x="102" y="500" type="line"/>
			<point x="40" y="190" type="line" smooth="yes"/>
			<point x="34" y="166"/>
			<point x="32" y="140"/>
			<point x="32" y="118" type="curve" smooth="yes"/>
			<point x="32" y="32"/>
			<point x="68" y="-12"/>
			<point x="150" y="-12" type="curve" smooth="yes"/>
			<point x="210" y="-12"/>
			<point x="262" y="18"/>
			<point x="302" y="54" type="curve"/>
			<point x="306" y="54" type="line"/>
			<point x="282" y="-34" type="line"/>
		</contour>
	</outline>
	<anchor name="aboveLC" x="320" y="522"/>
	<anchor name="belowLC" x="170" y="-182"/>
</glyph>
<glyph name="omegalatinclosed" format="2">
	<unicode hex="0277"/>
	<advance width="740"/>
	<outline>
		<contour>
			<point x="24" y="38"/>
			<point x="99" y="-12"/>
			<point x="182" y="-12" type="curve" smooth="yes"/>
			<point x="261" y="-12"/>
			<point x="316" y="44"/>
			<point x="346" y="114" type="curve"/>
			<point x="350" y="114" type="line"/>
			<point x="352" y="32"/>
			<point x="406" y="-12"/>
			<point x="485" y="-12" type="curve" smooth="yes"/>
			<point x="630" y="-12"/>
			<point x="706" y="126"/>
			<point x="706" y="258" type="curve" smooth="yes"/>
			<point x="706" y="436"/>
			<point x="562" y="510"/>
			<point x="402" y="510" type="curve" smooth="yes"/>
			<point x="170" y="510"/>
			<point x="24" y="346"/>
			<point x="24" y="165" type="curve" smooth="yes"/>
		</contour>
		<contour>
			<point x="227" y="116" type="curve" smooth="yes"/>
			<point x="203" y="116"/>
			<point x="186" y="131"/>
			<point x="186" y="178" type="curve" smooth="yes"/>
			<point x="186" y="282"/>
			<point x="257" y="382"/>
			<point x="384" y="382" type="curve" smooth="yes"/>
			<point x="477" y="382"/>
			<point x="544" y="342"/>
			<point x="544" y="254" type="curve" smooth="yes"/>
			<point x="544" y="173"/>
			<point x="507" y="120"/>
			<point x="468" y="120" type="curve" smooth="yes"/>
			<point x="445" y="120"/>
			<point x="430" y="130"/>
			<point x="430" y="158" type="curve" smooth="yes"/>
			<point x="430" y="170"/>
			<point x="433" y="184"/>
			<point x="436" y="201" type="curve" smooth="yes"/>
			<point x="458" y="310" type="line"/>
			<point x="310" y="310" type="line"/>
			<point x="288" y="216" type="line" smooth="yes"/>
			<point x="273" y="153"/>
			<point x="258" y="116"/>
		</contour>
	</outline>
	<anchor name="aboveLC" x="390" y="522"/>
	<anchor name="belowLC" x="330" y="-22"/>
</glyph>
<glyph name="rlonglegturned" format="2">
	<unicode hex="027A"/>
	<advance width="400"/>
	<outline>
		<contour>
			<point x="10" y="-12" type="curve" smooth="yes"/>
			<point x="66" y="-12"/>
			<point x="122" y="34"/>
			<point x="160" y="98" type="curve"/>
			<point x="164" y="98" type="line"/>
			<point x="160" y="0" type="line"/>
			<point x="290" y="0" type="line"/>
			<point x="432" y="696" type="line"/>
			<point x="272" y="696" type="line"/>
			<point x="176" y="220" type="line"/>
			<point x="138" y="154"/>
			<point x="102" y="128"/>
			<point x="60" y="128" type="curve" smooth="yes"/>
			<point x="44" y="128"/>
			<point x="22" y="128"/>
			<point x="8" y="136" type="curve"/>
			<point x="-44" y="-2" type="line"/>
			<point x="-34" y="-8"/>
			<point x="-18" y="-12"/>
		</contour>
	</outline>
	<anchor name="aboveUC" x="360" y="732"/>
	<anchor name="belowLC" x="120" y="-22"/>
</glyph>
<glyph name="rfishhook" format="2">
	<unicode hex="027E"/>
	<advance width="382"/>
	<outline>
		<contour>
			<point x="8" y="0" type="line"/>
			<point x="168" y="0" type="line"/>
			<point x="218" y="262" type="line" smooth="yes"/>
			<point x="234" y="344"/>
			<point x="272" y="372"/>
			<point x="316" y="372" type="curve" smooth="yes"/>
			<point x="342" y="372"/>
			<point x="360" y="370"/>
			<point x="380" y="364" type="curve"/>
			<point x="428" y="490" type="line"/>
			<point x="406" y="500"/>
			<point x="366" y="512"/>
			<point x="317" y="512" type="curve" smooth="yes"/>
			<point x="184" y="512"/>
			<point x="94" y="430"/>
			<point x="68" y="300" type="curve" smooth="yes"/>
		</contour>
	</outline>
	<anchor name="aboveLC" x="290" y="522"/>
	<anchor name="belowLC" x="80" y="-22"/>
	<anchor name="center" x="130" y="210"/>
</glyph>
<glyph name="dotlessjstrokehook" format="2">
	<unicode hex="0284"/>
	<advance width="326"/>
	<outline>
		<contour>
			<point x="-14" y="202" type="line"/>
			<point x="316" y="202" type="line"/>
			<point x="336" y="306" type="line"/>
			<point x="98" y="306" type="line"/>
			<point x="6" y="300" type="line"/>
		</contour>
		<component base="esh" xOffset="24"/>
	</outline>
	<anchor name="aboveUC" x="320" y="722"/>
	<anchor name="belowLC" x="30" y="-182"/>
</glyph>
<glyph name="bsmall" format="2">
	<unicode hex="0299"/>
	<advance width="518"/>
	<outline>
		<contour>
			<point x="8" y="0" type="line"/>
			<point x="232" y="0" type="line" smooth="yes"/>
			<point x="376" y="0"/>
			<point x="466" y="68"/>
			<point x="466" y="172" type="curve" smooth="yes"/>
			<point x="466" y="222"/>
			<point x="438" y="244"/>
			<point x="380" y="258" type="curve"/>
			<point x="380" y="262" type="line"/>
			<point x="450" y="284"/>
			<point x="486" y="334"/>
			<point x="486" y="392" type="curve" smooth="yes"/>
			<point x="486" y="475"/>
			<point x="409" y="500"/>
			<point x="316" y="500" type="curve" smooth="yes"/>
			<point x="108" y="500" type="line"/>
		</contour>
		<contour>
			<point x="228" y="302" type="line"/>
			<point x="246" y="388" type="line"/>
			<point x="280" y="388" type="line" smooth="yes"/>
			<point x="314" y="388"/>
			<point x="330" y="378"/>
			<point x="330" y="354" type="curve" smooth="yes"/>
			<point x="330" y="322"/>
			<point x="306" y="302"/>
			<point x="264" y="302" type="curve" smooth="yes"/>
		</contour>
		<contour>
			<point x="190" y="112" type="line"/>
			<point x="210" y="206" type="line"/>
			<point x="248" y="206" type="line" smooth="yes"/>
			<point x="292" y="206"/>
			<point x="308" y="196"/>
			<point x="308" y="168" type="curve" smooth="yes"/>
			<point x="308" y="138"/>
			<point x="284" y="112"/>
			<point x="240" y="112" type="curve" smooth="yes"/>
		</contour>
	</outline>
	<anchor name="aboveLC" x="300" y="522"/>
	<anchor name="belowLC" x="210" y="-22"/>
</glyph>
<glyph name="ringhalfrightmod" format="2">
	<unicode hex="02BE"/>
	<advance width="270"/>
	<outline>
		<contour>
			<point x="74" y="370" type="line"/>
			<point x="216" y="364"/>
			<point x="294" y="446"/>
			<point x="294" y="572" type="curve" smooth="yes"/>
			<point x="294" y="660"/>
			<point x="224" y="704"/>
			<point x="142" y="698" type="curve"/>
			<point x="124" y="610" type="line"/>
			<point x="162" y="610"/>
			<point x="182" y="594"/>
			<point x="182" y="558" type="curve" smooth="yes"/>
			<point x="182" y="498"/>
			<point x="150" y="458"/>
			<point x="92" y="458" type="curve"/>
		</contour>
	</outline>
</glyph>
<glyph name="verticallinemod" format="2">
	<unicode hex="02C8"/>
	<advance width="190"/>
	<outline>
		<contour>
			<point x="70" y="368" type="line"/>
			<point x="178" y="368" type="line"/>
			<point x="246" y="696" type="line"/>
			<point x="118" y="696" type="line"/>
		</contour>
	</outline>
</glyph>
<glyph name="s.sups" format="2">
	<unicode hex="02E2"/>
	<advance width="290"/>
	<outline>
		<contour>
			<point x="175" y="360" type="curve" smooth="yes"/>
			<point x="264" y="360"/>
			<point x="319" y="405"/>
			<point x="319" y="471" type="curve" smooth="yes"/>
			<point x="319" y="521"/>
			<point x="285" y="547"/>
			<point x="254" y="564" type="curve" smooth="yes"/>
			<point x="229" y="578"/>
			<point x="202" y="588"/>
			<point x="202" y="605" type="curve" smooth="yes"/>
			<point x="202" y="618"/>
			<point x="211" y="630"/>
			<point x="231" y="630" type="curve" smooth="yes"/>
			<point x="258" y="630"/>
			<point x="282" y="612"/>
			<point x="303" y="594" type="curve"/>
			<point x="353" y="659" type="line"/>
			<point x="322" y="684"/>
			<point x="281" y="708"/>
			<point x="231" y="708" type="curve" smooth="yes"/>
			<point x="155" y="708"/>
			<point x="98" y="659"/>
			<point x="98" y="595" type="curve" smooth="yes"/>
			<point x="98" y="551"/>
			<point x="129" y="523"/>
			<point x="161" y="502" type="curve" smooth="yes"/>
			<point x="196" y="479"/>
			<point x="216" y="476"/>
			<point x="216" y="462" type="curve" smooth="yes"/>
			<point x="216" y="447"/>
			<point x="207" y="438"/>
			<point x="182" y="438" type="curve" smooth="yes"/>
			<point x="158" y="438"/>
			<point x="134" y="452"/>
			<point x="108" y="476" type="curve"/>
			<point x="47" y="417" type="line"/>
			<point x="78" y="382"/>
			<point x="130" y="360"/>
		</contour>
	</outline>
</glyph>
<glyph name="gravecmb" format="2">
	<unicode hex="0300"/>
	<outline>
		<contour>
			<point x="70" y="570" type="line"/>
			<point x="190" y="570" type="line"/>
			<point x="120" y="760" type="line"/>
			<point x="-50" y="760" type="line"/>
			<point x="-60" y="742" type="line"/>
		</contour>
	</outline>
	<anchor name="_aboveLC" x="100" y="522"/>
</glyph>
<glyph name="lowlinecmb" format="2">
	<unicode hex="0332"/>
	<outline>
		<contour>
			<point x="-282" y="-170" type="line"/>
			<point x="212" y="-170" type="line"/>
			<point x="232" y="-70" type="line"/>
			<point x="-262" y="-70" type="line"/>
		</contour>
	</outline>
	<anchor name="_belowLC" x="0" y="-22"/>
</glyph>
<glyph name="variacmb" format="2">
	<unicode hex="0340"/>
	<outline>
		<contour>
			<point x="60" y="572" type="line"/>
			<point x="170" y="572" type="line"/>
			<point x="170" y="794" type="line"/>
			<point x="10" y="794" type="line"/>
			<point x="0" y="776" type="line"/>
		</contour>
	</outline>
	<anchor name="_aboveLC" x="100" y="522"/>
</glyph>
<glyph name="dialytikatonoscmb" format="2">
	<unicode hex="0344"/>
	<outline>
		<contour>
			<point x="-26" y="566" type="curve" smooth="yes"/>
			<point x="22" y="566"/>
			<point x="58" y="606"/>
			<point x="58" y="648" type="curve" smooth="yes"/>
			<point x="58" y="686"/>
			<point x="30" y="708"/>
			<point x="-4" y="708" type="curve" smooth="yes"/>
			<point x="-52" y="708"/>
			<point x="-88" y="668"/>
			<point x="-88" y="628" type="curve" smooth="yes"/>
			<point x="-88" y="588"/>
			<point x="-60" y="566"/>
		</contour>
		<contour>
			<point x="264" y="566" type="curve" smooth="yes"/>
			<point x="312" y="566"/>
			<point x="348" y="606"/>
			<point x="348" y="648" type="curve" smooth="yes"/>
			<point x="348" y="686"/>
			<point x="320" y="708"/>
			<point x="286" y="708" type="curve" smooth="yes"/>
			<point x="238" y="708"/>
			<point x="202" y="668"/>
			<point x="202" y="628" type="curve" smooth="yes"/>
			<point x="202" y="588"/>
			<point x="230" y="566"/>
		</contour>
		<contour>
			<point x="60" y="570" type="line"/>
			<point x="120" y="570" type="line"/>
			<point x="250" y="782" type="line"/>
			<point x="240" y="800" type="line"/>
			<point x="130" y="800" type="line"/>
		</contour>
	</outline>
	<anchor name="_aboveLC" x="100" y="522"/>
</glyph>
<glyph name="lownumeralsign" format="2">
	<unicode hex="0375"/>
	<advance width="300"/>
	<outline>
		<contour>
			<point x="2" y="0" type="line"/>
			<point x="160" y="0" type="line"/>
			<point x="239" y="308" type="line"/>
			<point x="136" y="308" type="line"/>
			<point x="53" y="132" type="line"/>
		</contour>
	</outline>
</glyph>
<glyph name="Sigma" format="2">
	<unicode hex="03A3"/>
	<advance width="530"/>
	<outline>
		<contour>
			<point x="-6" y="0" type="line"/>
			<point x="446" y="0" type="line"/>
			<point x="472" y="134" type="line"/>
			<point x="230" y="134" type="line"/>
			<point x="406" y="334" type="line"/>
			<point x="282" y="518" type="line"/>
			<point x="522" y="518" type="line"/>
			<point x="548" y="650" type="line"/>
			<point x="128" y="650" type="line"/>
			<point x="108" y="554" type="line"/>
			<point x="250" y="332" type="line"/>
			<point x="14" y="96" type="line"/>
		</contour>
	</outline>
</glyph>
<glyph name="alpha" format="2">
	<unicode hex="03B1"/>
	<advance width="576"/>
	<outline>
		<contour>
			<point x="182" y="-12" type="curve" smooth="yes"/>
			<point x="231" y="-12"/>
			<point x="296" y="14"/>
			<point x="332" y="78" type="curve"/>
			<point x="336" y="78" type="line"/>
			<point x="336" y="78"/>
			<point x="336" y="78"/>
			<point x="336" y="78" type="curve" smooth="yes"/>
			<point x="342" y="12"/>
			<point x="383" y="-12"/>
			<point x="448" y="-12" type="curve" smooth="yes"/>
			<point x="478" y="-12"/>
			<point x="504" y="-8"/>
			<point x="526" y="0" type="curve"/>
			<point x="532" y="120" type="line"/>
			<point x="522" y="118"/>
			<point x="514" y="116"/>
			<point x="500" y="116" type="curve" smooth="yes"/>
			<point x="482" y="116"/>
			<point x="466" y="124"/>
			<point x="466" y="148" type="curve" smooth="yes"/>
			<point x="466" y="194"/>
			<point x="528" y="370"/>
			<point x="580" y="500" type="curve"/>
			<point x="422" y="500" type="line"/>
			<point x="394" y="398" type="line"/>
			<point x="390" y="398" type="line"/>
			<point x="395" y="483"/>
			<point x="342" y="512"/>
			<point x="276" y="512" type="curve" smooth="yes"/>
			<point x="156" y="512"/>
			<point x="26" y="358"/>
			<point x="26" y="180" type="curve" smooth="yes"/>
			<point x="26" y="62"/>
			<point x="81" y="-12"/>
		</contour>
		<contour>
			<point x="244" y="118" type="curve" smooth="yes"/>
			<point x="214" y="118"/>
			<point x="192" y="140"/>
			<point x="192" y="196" type="curve" smooth="yes"/>
			<point x="192" y="292"/>
			<point x="254" y="382"/>
			<point x="300" y="382" type="curve" smooth="yes"/>
			<point x="336" y="382"/>
			<point x="354" y="354"/>
			<point x="354" y="284" type="curve"/>
			<point x="334" y="206" type="line"/>
			<point x="318" y="154"/>
			<point x="282" y="118"/>
		</contour>
	</outline>
	<anchor name="aboveLC" x="350" y="522"/>
	<anchor name="belowLC" x="260" y="-22"/>
</glyph>
<glyph name="beta" format="2">
	<unicode hex="03B2"/>
	<advance width="586"/>
	<outline>
		<contour>
			<point x="-28" y="-176" type="line"/>
			<point x="132" y="-176" type="line"/>
			<point x="140" y="-102"/>
			<point x="155" y="-28"/>
			<point x="168" y="46" type="curve"/>
			<point x="202" y="8"/>
			<point x="256" y="-12"/>
			<point x="316" y="-12" type="curve" smooth="yes"/>
			<point x="460" y="-12"/>
			<point x="548" y="92"/>
			<point x="548" y="212" type="curve" smooth="yes"/>
			<point x="548" y="288"/>
			<point x="506" y="346"/>
			<point x="436" y="366" type="curve"/>
			<point x="436" y="370" type="line"/>
			<point x="520" y="402"/>
			<point x="566" y="468"/>
			<point x="566" y="550" type="curve" smooth="yes"/>
			<point x="566" y="644"/>
			<point x="495" y="708"/>
			<point x="370" y="708" type="curve" smooth="yes"/>
			<point x="227" y="708"/>
			<point x="137" y="618"/>
			<point x="108" y="478" type="curve" smooth="yes"/>
		</contour>
		<contour>
			<point x="306" y="118" type="curve" smooth="yes"/>
			<point x="262" y="118"/>
			<point x="226" y="136"/>
			<point x="198" y="172" type="curve"/>
			<point x="218" y="268"/>
			<point x="237" y="358"/>
			<point x="258" y="454" type="curve" smooth="yes"/>
			<point x="276" y="536"/>
			<point x="308" y="582"/>
			<point x="352" y="582" type="curve" smooth="yes"/>
			<point x="390" y="582"/>
			<point x="412" y="560"/>
			<point x="412" y="520" type="curve" smooth="yes"/>
			<point x="412" y="482"/>
			<point x="384" y="418"/>
			<point x="288" y="412" type="curve"/>
			<point x="306" y="298" type="line"/>
			<point x="312" y="299"/>
			<point x="316" y="300"/>
			<point x="322" y="300" type="curve" smooth="yes"/>
			<point x="374" y="300"/>
			<point x="400" y="270"/>
			<point x="400" y="218" type="curve" smooth="yes"/>
			<point x="400" y="158"/>
			<point x="354" y="118"/>
		</contour>
	</outline>
	<anchor name="aboveUC" x="380" y="722"/>
	<anchor name="belowLC" x="60" y="-182"/>
</glyph>
<glyph name="lambda" format="2">
	<unicode hex="03BB"/>
	<advance width="478"/>
	<outline>
		<contour>
			<point x="312" y="-12" type="curve"/>
			<point x="456" y="0" type="line"/>
			<point x="432" y="62"/>
			<point x="398" y="308"/>
			<point x="376" y="510" type="curve" smooth="yes"/>
			<point x="360" y="653"/>
			<point x="300" y="708"/>
			<point x="192" y="708" type="curve" smooth="yes"/>
			<point x="178" y="708"/>
			<point x="148" y="704"/>
			<point x="124" y="698" type="curve"/>
			<point x="146" y="578" type="line"/>
			<point x="159" y="580"/>
			<point x="164" y="582"/>
			<point x="172" y="582" type="curve" smooth="yes"/>
			<point x="228" y="582"/>
			<point x="246" y="560"/>
			<point x="250" y="520" type="curve" smooth="yes"/>
			<point x="273" y="300"/>
			<point x="290" y="40"/>
		</contour>
		<contour>
			<point x="-54" y="0" type="curve"/>
			<point x="112" y="-6" type="line"/>
			<point x="168" y="120"/>
			<point x="232" y="240"/>
			<point x="304" y="356" type="curve"/>
			<point x="254" y="506" type="line"/>
			<point x="146" y="342"/>
			<point x="48" y="170"/>
		</contour>
	</outline>
	<anchor name="aboveUC" x="340" y="722"/>
	<anchor name="belowLC" x="220" y="-22"/>
</glyph>
<glyph name="theta.a" format="2">
	<unicode hex="03D1"/>
	<advance width="538"/>
	<outline>
		<contour>
			<point x="226" y="-12" type="curve" smooth="yes"/>
			<point x="414" y="-12"/>
			<point x="532" y="226"/>
			<point x="532" y="504" type="curve" smooth="yes"/>
			<point x="532" y="636"/>
			<point x="450" y="708"/>
			<point x="350" y="708" type="curve" smooth="yes"/>
			<point x="162" y="708"/>
			<point x="44" y="470"/>
			<point x="44" y="192" type="curve" smooth="yes"/>
			<point x="44" y="60"/>
			<point x="126" y="-12"/>
		</contour>
		<contour>
			<point x="242" y="116" type="curve" smooth="yes"/>
			<point x="210" y="116"/>
			<point x="192" y="138"/>
			<point x="192" y="198" type="curve" smooth="yes"/>
			<point x="192" y="374"/>
			<point x="262" y="580"/>
			<point x="334" y="580" type="curve" smooth="yes"/>
			<point x="366" y="580"/>
			<point x="384" y="558"/>
			<point x="384" y="498" type="curve" smooth="yes"/>
			<point x="384" y="322"/>
			<point x="314" y="116"/>
		</contour>
		<contour>
			<point x="138" y="296" type="line"/>
			<point x="416" y="296" type="line"/>
			<point x="440" y="412" type="line"/>
			<point x="162" y="412" type="line"/>
		</contour>
	</outline>
	<anchor name="aboveUC" x="360" y="722"/>
	<anchor name="belowLC" x="220" y="-22"/>
</glyph>
<glyph name="phi" format="2">
	<unicode hex="03D5"/>
	<unicode hex="03C6"/>
	<advance width="718"/>
	<outline>
		<contour>
			<point x="184" y="-176" type="line"/>
			<point x="336" y="-176" type="line"/>
			<point x="354" y="-66"/>
			<point x="389" y="129"/>
			<point x="430" y="280" type="curve" smooth="yes"/>
			<point x="450" y="353"/>
			<point x="465" y="372"/>
			<point x="496" y="372" type="curve" smooth="yes"/>
			<point x="521" y="372"/>
			<point x="534" y="350"/>
			<point x="534" y="308" type="curve" smooth="yes"/>
			<point x="534" y="196"/>
			<point x="455" y="108"/>
			<point x="374" y="106" type="curve"/>
			<point x="340" y="-12" type="line"/>
			<point x="527" y="-10"/>
			<point x="692" y="133"/>
			<point x="692" y="310" type="curve" smooth="yes"/>
			<point x="692" y="428"/>
			<point x="624" y="500"/>
			<point x="518" y="500" type="curve" smooth="yes"/>
			<point x="392" y="500"/>
			<point x="326" y="422"/>
			<point x="290" y="270" type="curve" smooth="yes"/>
		</contour>
		<contour>
			<point x="252" y="-12" type="curve"/>
			<point x="296" y="106" type="line"/>
			<point x="224" y="110"/>
			<point x="186" y="149"/>
			<point x="186" y="224" type="curve" smooth="yes"/>
			<point x="186" y="291"/>
			<point x="231" y="373"/>
			<point x="302" y="406" type="curve"/>
			<point x="254" y="528" type="line"/>
			<point x="123" y="477"/>
			<point x="24" y="362"/>
			<point x="24" y="212" type="curve" smooth="yes"/>
			<point x="24" y="60"/>
			<point x="140" y="-10"/>
		</contour>
	</outline>
	<anchor name="aboveLC" x="410" y="522"/>
	<anchor name="belowLC" x="270" y="-182"/>
</glyph>
<glyph name="dzhe" format="2">
	<unicode hex="045F"/>
	<advance width="552"/>
	<outline>
		<contour>
			<point x="103" y="-172" type="line"/>
			<point x="261" y="-172" type="line"/>
			<point x="282" y="-30" type="line"/>
			<point x="158" y="-30" type="line"/>
		</contour>
		<component base="u"/>
	</outline>
</glyph>
<glyph name="Ghestroke" format="2">
	<unicode hex="0492"/>
	<advance width="524"/>
	<outline>
		<contour>
			<point x="24" y="256" type="line"/>
			<point x="386" y="256" type="line"/>
			<point x="406" y="360" type="line"/>
			<point x="120" y="360" type="line"/>
			<point x="44" y="354" type="line"/>
		</contour>
		<component base="Gamma" xOffset="20"/>
	</outline>
</glyph>
<glyph name="ghestroke" format="2">
	<unicode hex="0493"/>
	<advance width="426"/>
	<outline>
		<contour>
			<point x="172" y="-12" type="curve" smooth="yes"/>
			<point x="254" y="-12"/>
			<point x="324" y="20"/>
			<point x="380" y="58" type="curve"/>
			<point x="328" y="150" type="line"/>
			<point x="281" y="120"/>
			<point x="230" y="106"/>
			<point x="190" y="106" type="curve" smooth="yes"/>
			<point x="168" y="106"/>
			<point x="156" y="120"/>
			<point x="156" y="136" type="curve" smooth="yes"/>
			<point x="156" y="206"/>
			<point x="416" y="252"/>
			<point x="416" y="392" type="curve" smooth="yes"/>
			<point x="416" y="464"/>
			<point x="358" y="512"/>
			<point x="254" y="512" type="curve" smooth="yes"/>
			<point x="190" y="512"/>
			<point x="116" y="490"/>
			<point x="64" y="446" type="curve"/>
			<point x="126" y="356" type="line"/>
			<point x="162" y="380"/>
			<point x="207" y="394"/>
			<point x="236" y="394" type="curve" smooth="yes"/>
			<point x="258" y="394"/>
			<point x="268" y="382"/>
			<point x="268" y="366" type="curve" smooth="yes"/>
			<point x="268" y="294"/>
			<point x="8" y="260"/>
			<point x="8" y="118" type="curve" smooth="yes"/>
			<point x="8" y="45"/>
			<point x="60" y="-12"/>
		</contour>
		<contour>
			<point x="-8" y="230" type="line"/>
			<point x="428" y="230" type="line"/>
			<point x="444" y="306" type="line"/>
			<point x="80" y="306" type="line"/>
			<point x="6" y="300" type="line"/>
		</contour>
	</outline>
</glyph>
<glyph name="kadescender" format="2">
	<unicode hex="049B"/>
	<advance width="580"/>
	<outline>
		<contour>
			<point x="338" y="-172" type="line"/>
			<point x="462" y="-172" type="line"/>
			<point x="520" y="18" type="line"/>
			<point x="540" y="134" type="line"/>
			<point x="362" y="134" type="line"/>
			<point x="336" y="0" type="line"/>
			<point x="366" y="0" type="line"/>
		</contour>
		<component base="ka"/>
	</outline>
</glyph>
<glyph name="ain" format="2">
	<unicode hex="1D25"/>
	<advance width="568"/>
	<outline>
		<contour>
			<point x="62" y="-12" type="curve" smooth="yes"/>
			<point x="114" y="-12"/>
			<point x="168" y="10"/>
			<point x="238" y="68" type="curve"/>
			<point x="288" y="15"/>
			<point x="346" y="-12"/>
			<point x="406" y="-12" type="curve" smooth="yes"/>
			<point x="444" y="-12"/>
			<point x="480" y="-4"/>
			<point x="506" y="10" type="curve"/>
			<point x="468" y="128" type="line"/>
			<point x="458" y="121"/>
			<point x="440" y="116"/>
			<point x="428" y="116" type="curve" smooth="yes"/>
			<point x="398" y="116"/>
			<point x="374" y="122"/>
			<point x="348" y="148" type="curve"/>
			<point x="444" y="222"/>
			<point x="492" y="284"/>
			<point x="492" y="362" type="curve" smooth="yes"/>
			<point x="492" y="464"/>
			<point x="416" y="512"/>
			<point x="322" y="512" type="curve" smooth="yes"/>
			<point x="172" y="512"/>
			<point x="88" y="410"/>
			<point x="88" y="306" type="curve" smooth="yes"/>
			<point x="88" y="254"/>
			<point x="117" y="200"/>
			<point x="156" y="152" type="curve"/>
			<point x="126" y="126"/>
			<point x="104" y="116"/>
			<point x="80" y="116" type="curve" smooth="yes"/>
			<point x="62" y="116"/>
			<point x="48" y="120"/>
			<point x="34" y="128" type="curve"/>
			<point x="-28" y="14" type="line"/>
			<point x="-10" y="-2"/>
			<point x="26" y="-12"/>
		</contour>
	</outline>
	<anchor name="aboveLC" x="330" y="522"/>
	<anchor name="belowLC" x="230" y="-22"/>
</glyph>
<glyph name="K.sups" format="2">
	<unicode hex="1D37"/>
	<advance width="408"/>
	<outline>
		<contour>
			<point x="70" y="368" type="line"/>
			<point x="184" y="368" type="line"/>
			<point x="206" y="488" type="line"/>
			<point x="260" y="544" type="line"/>
			<point x="320" y="368" type="line"/>
			<point x="440" y="368" type="line"/>
			<point x="342" y="618" type="line"/>
			<point x="502" y="800" type="line"/>
			<point x="374" y="800" type="line"/>
			<point x="242" y="644" type="line"/>
			<point x="238" y="644" type="line"/>
			<point x="270" y="800" type="line"/>
			<point x="156" y="800" type="line"/>
		</contour>
	</outline>
</glyph>
<glyph name="W.sups" format="2">
	<unicode hex="1D42"/>
	<advance width="536"/>
	<outline>
		<contour>
			<point x="104" y="368" type="line"/>
			<point x="248" y="368" type="line"/>
			<point x="310" y="536" type="line" smooth="yes"/>
			<point x="322" y="568"/>
			<point x="333" y="610"/>
			<point x="346" y="644" type="curve"/>
			<point x="350" y="644" type="line"/>
			<point x="347" y="610"/>
			<point x="345" y="568"/>
			<point x="344" y="536" type="curve" smooth="yes"/>
			<point x="340" y="368" type="line"/>
			<point x="486" y="368" type="line"/>
			<point x="640" y="800" type="line"/>
			<point x="530" y="800" type="line"/>
			<point x="468" y="614" type="line"/>
			<point x="454" y="568"/>
			<point x="440" y="520"/>
			<point x="426" y="470" type="curve"/>
			<point x="422" y="470" type="line"/>
			<point x="424" y="520"/>
			<point x="426" y="568"/>
			<point x="428" y="614" type="curve"/>
			<point x="430" y="800" type="line"/>
			<point x="334" y="800" type="line"/>
			<point x="258" y="614" type="line"/>
			<point x="240" y="567"/>
			<point x="224" y="520"/>
			<point x="208" y="470" type="curve"/>
			<point x="204" y="470" type="line"/>
			<point x="210" y="520"/>
			<point x="214" y="566"/>
			<point x="218" y="614" type="curve"/>
			<point x="234" y="800" type="line"/>
			<point x="116" y="800" type="line"/>
		</contour>
	</outline>
</glyph>
<glyph name="i.sups" format="2">
	<unicode hex="2071"/>
	<advance width="186"/>
	<outline>
		<contour>
			<point x="64" y="368" type="line"/>
			<point x="176" y="368" type="line"/>
			<point x="242" y="700" type="line"/>
			<point x="130" y="700" type="line"/>
		</contour>
		<contour>
			<point x="202" y="740" type="curve" smooth="yes"/>
			<point x="238" y="740"/>
			<point x="268" y="768"/>
			<point x="268" y="800" type="curve" smooth="yes"/>
			<point x="268" y="834"/>
			<point x="240" y="850"/>
			<point x="210" y="850" type="curve" smooth="yes"/>
			<point x="174" y="850"/>
			<point x="144" y="822"/>
			<point x="144" y="790" type="curve" smooth="yes"/>
			<point x="144" y="756"/>
			<point x="172" y="740"/>
		</contour>
	</outline>
</glyph>
<glyph name="minus.subs" format="2">
	<unicode hex="208B"/>
	<advance width="366"/>
	<outline>
		<contour>
			<point x="-50" y="-38" type="line"/>
			<point x="282" y="-38" type="line"/>
			<point x="282" y="54" type="line"/>
			<point x="-50" y="54" type="line"/>
		</contour>
	</outline>
</glyph>
<glyph name="arrowright" format="2">
	<unicode hex="2192"/>
	<advance width="590"/>
	<outline>
		<contour>
			<point x="307" y="-19" type="line"/>
			<point x="575" y="249" type="line"/>
			<point x="575" y="253" type="line"/>
			<point x="307" y="521" type="line"/>
			<point x="233" y="437" type="line"/>
			<point x="363" y="315" type="line"/>
			<point x="17" y="315" type="line"/>
			<point x="17" y="187" type="line"/>
			<point x="363" y="187" type="line"/>
			<point x="233" y="65" type="line"/>
		</contour>
	</outline>
</glyph>
<glyph name="product" format="2">
	<unicode hex="220F"/>
	<advance width="694"/>
	<outline>
		<contour>
			<point x="84" y="-120" type="line"/>
			<point x="244" y="-120" type="line"/>
			<point x="244" y="494" type="line"/>
			<point x="470" y="494" type="line"/>
			<point x="470" y="-120" type="line"/>
			<point x="630" y="-120" type="line"/>
			<point x="630" y="634" type="line"/>
			<point x="84" y="634" type="line"/>
		</contour>
	</outline>
</glyph>
<glyph name="tackright" format="2">
	<unicode hex="22A2"/>
	<advance width="520"/>
	<outline>
		<contour>
			<point x="48" y="92" type="line"/>
			<point x="164" y="92" type="line"/>
			<point x="164" y="274" type="line"/>
			<point x="496" y="274" type="line"/>
			<point x="496" y="386" type="line"/>
			<point x="164" y="386" type="line"/>
			<point x="164" y="568" type="line"/>
			<point x="48" y="568" type="line"/>
		</contour>
	</outline>
</glyph>
<glyph name="tackleft" format="2">
	<unicode hex="22A3"/>
	<advance width="520"/>
	<outline>
		<contour>
			<point x="380" y="92" type="line"/>
			<point x="496" y="92" type="line"/>
			<point x="496" y="568" type="line"/>
			<point x="380" y="568" type="line"/>
			<point x="380" y="386" type="line"/>
			<point x="48" y="386" type="line"/>
			<point x="48" y="274" type="line"/>
			<point x="380" y="274" type="line"/>
		</contour>
	</outline>
</glyph>
<glyph name="tackdown" format="2">
	<unicode hex="22A4"/>
	<advance width="520"/>
	<outline>
		<contour>
			<point x="214" y="92" type="line"/>
			<point x="330" y="92" type="line"/>
			<point x="330" y="456" type="line"/>
			<point x="496" y="456" type="line"/>
			<point x="496" y="568" type="line"/>
			<point x="48" y="568" type="line"/>
			<point x="48" y="456" type="line"/>
			<point x="214" y="456" type="line"/>
		</contour>
	</outline>
</glyph>
<glyph name="tackup" format="2">
	<unicode hex="22A5"/>
	<advance width="520"/>
	<outline>
		<contour>
			<point x="48" y="92" type="line"/>
			<point x="496" y="92" type="line"/>
			<point x="496" y="204" type="line"/>
			<point x="330" y="204" type="line"/>
			<point x="330" y="568" type="line"/>
			<point x="214" y="568" type="line"/>
			<point x="214" y="204" type="line"/>
			<point x="48" y="204" type="line"/>
		</contour>
	</outline>
</glyph>
<glyph name="true" format="2">
	<unicode hex="22A8"/>
	<advance width="520"/>
	<outline>
		<contour>
			<point x="48" y="92" type="line"/>
			<point x="164" y="92" type="line"/>
			<point x="164" y="154" type="line"/>
			<point x="496" y="154" type="line"/>
			<point x="496" y="266" type="line"/>
			<point x="164" y="266" type="line"/>
			<point x="164" y="394" type="line"/>
			<point x="496" y="394" type="line"/>
			<point x="496" y="506" type="line"/>
			<point x="164" y="506" type="line"/>
			<point x="164" y="568" type="line"/>
			<point x="48" y="568" type="line"/>
		</contour>
	</outline>
</glyph>
<glyph name="ceilingright" format="2">
	<unicode hex="231D"/>
	<advance width="344"/>
	<outline>
		<contour>
			<point x="102" y="0" type="line"/>
			<point x="222" y="0" type="line"/>
			<point x="358" y="692" type="line"/>
			<point x="146" y="692" type="line"/>
			<point x="128" y="608" type="line"/>
			<point x="222" y="608" type="line"/>
		</contour>
	</outline>
</glyph>
<glyph name="quoteleftheavy" format="2">
	<unicode hex="275B"/>
	<advance width="360"/>
	<outline>
		<contour>
			<point x="200" y="214" type="curve" smooth="yes"/>
			<point x="294" y="214"/>
			<point x="372" y="302"/>
			<point x="372" y="394" type="curve" smooth="yes"/>
			<point x="372" y="480"/>
			<point x="302" y="521"/>
			<point x="247" y="521" type="curve" smooth="yes"/>
			<point x="226" y="521"/>
			<point x="206" y="516"/>
			<point x="188" y="506" type="curve"/>
			<point x="205" y="385" type="line"/>
			<point x="230" y="511" type="line"/>
			<point x="242" y="570"/>
			<point x="290" y="604"/>
			<point x="363" y="626" type="curve"/>
			<point x="332" y="704" type="line"/>
			<point x="152" y="652"/>
			<point x="54" y="500"/>
			<point x="54" y="368" type="curve" smooth="yes"/>
			<point x="54" y="276"/>
			<point x="108" y="214"/>
		</contour>
	</outline>
</glyph>
<glyph name="bracketangleleft" format="2">
	<unicode hex="27E8"/>
	<advance width="344"/>
	<outline>
		<contour>
			<point x="118" y="-184" type="line"/>
			<point x="218" y="-142" type="line"/>
			<point x="158" y="252" type="line"/>
			<point x="380" y="680" type="line"/>
			<point x="288" y="734" type="line"/>
			<point x="58" y="332" type="line"/>
			<point x="36" y="212" type="line"/>
		</contour>
	</outline>
</glyph>
<glyph name="ainEgypt" format="2">
	<unicode hex="A725"/>
	<advance width="327"/>
	<outline>
		<contour>
			<point x="239" y="236" type="curve"/>
			<point x="272" y="306" type="line"/>
			<point x="208" y="310"/>
			<point x="190" y="333"/>
			<point x="190" y="358" type="curve" smooth="yes"/>
			<point x="190" y="370"/>
			<point x="194" y="381"/>
			<point x="198" y="390" type="curve"/>
			<point x="152" y="390" type="line"/>
			<point x="168" y="379"/>
			<point x="194" y="368"/>
			<point x="222" y="368" type="curve" smooth="yes"/>
			<point x="276" y="368"/>
			<point x="320" y="404"/>
			<point x="320" y="442" type="curve" smooth="yes"/>
			<point x="320" y="487"/>
			<point x="288" y="512"/>
			<point x="220" y="512" type="curve" smooth="yes"/>
			<point x="132" y="512"/>
			<point x="68" y="442"/>
			<point x="68" y="362" type="curve" smooth="yes"/>
			<point x="68" y="286"/>
			<point x="122" y="238"/>
		</contour>
	</outline>
</glyph>
<glyph name="rrotunda" format="2">
	<unicode hex="A75B"/>
	<advance width="412"/>
	<outline>
		<contour>
			<point x="242" y="-12" type="curve" smooth="yes"/>
			<point x="276" y="-12"/>
			<point x="309" y="-5"/>
			<point x="326" y="4" type="curve"/>
			<point x="318" y="120" type="line"/>
			<point x="307" y="117"/>
			<point x="291" y="116"/>
			<point x="268" y="116" type="curve" smooth="yes"/>
			<point x="240" y="116"/>
			<point x="218" y="122"/>
			<point x="196" y="144" type="curve"/>
			<point x="323" y="218"/>
			<point x="390" y="290"/>
			<point x="390" y="384" type="curve" smooth="yes"/>
			<point x="390" y="462"/>
			<point x="334" y="512"/>
			<point x="240" y="512" type="curve" smooth="yes"/>
			<point x="180" y="512"/>
			<point x="112" y="488"/>
			<point x="58" y="448" type="curve"/>
			<point x="112" y="352" type="line"/>
			<point x="140" y="372"/>
			<point x="166" y="382"/>
			<point x="190" y="382" type="curve" smooth="yes"/>
			<point x="208" y="382"/>
			<point x="222" y="366"/>
			<point x="222" y="338" type="curve" smooth="yes"/>
			<point x="222" y="300"/>
			<point x="157" y="232"/>
			<point x="30" y="166" type="curve"/>
			<point x="44" y="42"/>
			<point x="141" y="-12"/>
		</contour>
	</outline>
	<anchor name="aboveLC" x="260" y="522"/>
	<anchor name="belowLC" x="150" y="-22"/>
</glyph>
<glyph name="that" format="2">
	<unicode hex="A765"/>
	<advance width="556"/>
	<outline>
		<contour>
			<point x="-28" y="-176" type="line"/>
			<point x="132" y="-176" type="line"/>
			<point x="156" y="-52" type="line"/>
			<point x="168" y="42" type="line"/>
			<point x="170" y="42" type="line"/>
			<point x="190" y="8"/>
			<point x="226" y="-12"/>
			<point x="264" y="-12" type="curve" smooth="yes"/>
			<point x="398" y="-12"/>
			<point x="522" y="115"/>
			<point x="522" y="276" type="curve" smooth="yes"/>
			<point x="522" y="394"/>
			<point x="470" y="460"/>
			<point x="382" y="460" type="curve" smooth="yes"/>
			<point x="336" y="460"/>
			<point x="288" y="440"/>
			<point x="246" y="406" type="curve"/>
			<point x="244" y="406" type="line"/>
			<point x="270" y="498" type="line"/>
			<point x="308" y="696" type="line"/>
			<point x="148" y="696" type="line"/>
		</contour>
		<contour>
			<point x="44" y="522" type="line"/>
			<point x="430" y="522" type="line"/>
			<point x="454" y="626" type="line"/>
			<point x="140" y="626" type="line"/>
			<point x="66" y="620" type="line"/>
		</contour>
		<contour>
			<point x="356" y="175"/>
			<point x="306" y="118"/>
			<point x="252" y="118" type="curve" smooth="yes"/>
			<point x="232" y="118"/>
			<point x="210" y="130"/>
			<point x="200" y="156" type="curve"/>
			<point x="226" y="274" type="line"/>
			<point x="250" y="318"/>
			<point x="284" y="330"/>
			<point x="310" y="330" type="curve" smooth="yes"/>
			<point x="338" y="330"/>
			<point x="356" y="308"/>
			<point x="356" y="256" type="curve" smooth="yes"/>
		</contour>
	</outline>
</glyph>
<glyph name="sharealike" format="2">
	<unicode hex="1F10E"/>
	<advance width="674"/>
	<outline>
		<contour>
			<point x="298" y="-8" type="curve" smooth="yes"/>
			<point x="516" y="-8"/>
			<point x="676" y="164"/>
			<point x="676" y="378" type="curve" smooth="yes"/>
			<point x="676" y="540"/>
			<point x="564" y="656"/>
			<point x="406" y="656" type="curve" smooth="yes"/>
			<point x="188" y="656"/>
			<point x="28" y="484"/>
			<point x="28" y="270" type="curve" smooth="yes"/>
			<point x="28" y="108"/>
			<point x="140" y="-8"/>
		</contour>
		<contour>
			<point x="304" y="60" type="curve" smooth="yes"/>
			<point x="168" y="60"/>
			<point x="100" y="162"/>
			<point x="100" y="276" type="curve" smooth="yes"/>
			<point x="100" y="450"/>
			<point x="232" y="588"/>
			<point x="400" y="588" type="curve" smooth="yes"/>
			<point x="536" y="588"/>
			<point x="604" y="486"/>
			<point x="604" y="372" type="curve" smooth="yes"/>
			<point x="604" y="198"/>
			<point x="472" y="60"/>
		</contour>
		<contour>
			<point x="318" y="128" type="curve" smooth="yes"/>
			<point x="220" y="128"/>
			<point x="174" y="180"/>
			<point x="174" y="272" type="curve"/>
			<point x="280" y="272" type="line"/>
			<point x="280" y="238"/>
			<point x="296" y="220"/>
			<point x="329" y="220" type="curve" smooth="yes"/>
			<point x="378" y="220"/>
			<point x="426" y="283"/>
			<point x="426" y="354" type="curve" smooth="yes"/>
			<point x="426" y="395"/>
			<point x="407" y="426"/>
			<point x="374" y="426" type="curve" smooth="yes"/>
			<point x="339" y="426"/>
			<point x="309" y="401"/>
			<point x="304" y="374" type="curve"/>
			<point x="272" y="384" type="line"/>
			<point x="344" y="384" type="line"/>
			<point x="236" y="282" type="line"/>
			<point x="166" y="384" type="line"/>
			<point x="236" y="384" type="line"/>
			<point x="199" y="374" type="line"/>
			<point x="216" y="458"/>
			<point x="299" y="518"/>
			<point x="390" y="518" type="curve" smooth="yes"/>
			<point x="470" y="518"/>
			<point x="534" y="458"/>
			<point x="534" y="368" type="curve" smooth="yes"/>
			<point x="534" y="242"/>
			<point x="442" y="128"/>
		</contour>
	</outline>
</glyph>
<glyph name="brevehoi" format="2">
	<outline>
		<contour>
			<point x="112" y="572" type="curve" smooth="yes"/>
			<point x="234" y="572"/>
			<point x="296" y="638"/>
			<point x="314" y="732" type="curve"/>
			<point x="232" y="748" type="line"/>
			<point x="216" y="702"/>
			<point x="184" y="668"/>
			<point x="130" y="668" type="curve" smooth="yes"/>
			<point x="80" y="668"/>
			<point x="54" y="694"/>
			<point x="54" y="748" type="curve"/>
			<point x="-36" y="732" type="line"/>
			<point x="-36" y="624"/>
			<point x="22" y="572"/>
		</contour>
		<contour>
			<point x="102" y="714" type="line"/>
			<point x="182" y="722"/>
			<point x="242" y="766"/>
			<point x="242" y="828" type="curve" smooth="yes"/>
			<point x="242" y="882"/>
			<point x="198" y="914"/>
			<point x="96" y="914" type="curve"/>
			<point x="74" y="822" type="line"/>
			<point x="118" y="818"/>
			<point x="130" y="810"/>
			<point x="130" y="796" type="curve" smooth="yes"/>
			<point x="130" y="780"/>
			<point x="118" y="772"/>
			<point x="100" y="770" type="curve"/>
		</contour>
	</outline>
	<anchor name="_aboveLC" x="100" y="522"/>
</glyph>
<glyph name="caroncomma.cap" format="2">
	<outline>
		<contour>
			<point x="72" y="700" type="line"/>
			<point x="207" y="700" type="line"/>
			<point x="340" y="830" type="line"/>
			<point x="223" y="830" type="line"/>
			<point x="148" y="786" type="line"/>
			<point x="144" y="786" type="line"/>
			<point x="97" y="830" type="line"/>
			<point x="-20" y="830" type="line"/>
		</contour>
		<component base="commaabovecmb.cap" xScale="0.9" yScale="0.9" xOffset="40" yOffset="190"/>
	</outline>
	<anchor name="_aboveUC" x="130" y="672"/>
</glyph>
<glyph name="circumflexcaron" format="2">
	<outline>
		<contour>
			<point x="-72" y="570" type="line"/>
			<point x="45" y="570" type="line"/>
			<point x="124" y="612" type="line"/>
			<point x="127" y="612" type="line"/>
			<point x="180" y="570" type="line"/>
			<point x="288" y="570" type="line"/>
			<point x="212" y="690" type="line"/>
			<point x="68" y="690" type="line"/>
		</contour>
		<contour>
			<point x="64" y="730" type="line"/>
			<point x="208" y="730" type="line"/>
			<point x="348" y="850" type="line"/>
			<point x="231" y="850" type="line"/>
			<point x="152" y="808" type="line"/>
			<point x="149" y="808" type="line"/>
			<point x="96" y="850" type="line"/>
			<point x="-12" y="850" type="line"/>
		</contour>
	</outline>
	<anchor name="_aboveLC" x="100" y="522"/>
</glyph>
<glyph name="circumflextilde" format="2">
	<outline>
		<contour>
			<point x="216" y="748" type="curve" smooth="yes"/>
			<point x="264" y="748"/>
			<point x="306" y="782"/>
			<point x="326" y="868" type="curve"/>
			<point x="252" y="876" type="line"/>
			<point x="242" y="850"/>
			<point x="230" y="840"/>
			<point x="208" y="840" type="curve" smooth="yes"/>
			<point x="174" y="840"/>
			<point x="154" y="882"/>
			<point x="94" y="882" type="curve" smooth="yes"/>
			<point x="46" y="882"/>
			<point x="4" y="848"/>
			<point x="-16" y="762" type="curve"/>
			<point x="58" y="754" type="line"/>
			<point x="68" y="780"/>
			<point x="80" y="790"/>
			<point x="102" y="790" type="curve" smooth="yes"/>
			<point x="136" y="790"/>
			<point x="156" y="748"/>
		</contour>
		<contour>
			<point x="-70" y="572" type="line"/>
			<point x="47" y="572" type="line"/>
			<point x="130" y="626" type="line"/>
			<point x="133" y="626" type="line"/>
			<point x="182" y="572" type="line"/>
			<point x="290" y="572" type="line"/>
			<point x="216" y="720" type="line"/>
			<point x="72" y="720" type="line"/>
		</contour>
	</outline>
	<anchor name="_aboveLC" x="100" y="522"/>
</glyph>
<glyph name="dieresiscaron" format="2">
	<outline>
		<contour>
			<point x="4" y="566" type="curve" smooth="yes"/>
			<point x="52" y="566"/>
			<point x="88" y="606"/>
			<point x="88" y="648" type="curve" smooth="yes"/>
			<point x="88" y="686"/>
			<point x="60" y="708"/>
			<point x="26" y="708" type="curve" smooth="yes"/>
			<point x="-22" y="708"/>
			<point x="-58" y="668"/>
			<point x="-58" y="628" type="curve" smooth="yes"/>
			<point x="-58" y="588"/>
			<point x="-30" y="566"/>
		</contour>
		<contour>
			<point x="224" y="566" type="curve" smooth="yes"/>
			<point x="272" y="566"/>
			<point x="308" y="606"/>
			<point x="308" y="648" type="curve" smooth="yes"/>
			<point x="308" y="686"/>
			<point x="280" y="708"/>
			<point x="246" y="708" type="curve" smooth="yes"/>
			<point x="198" y="708"/>
			<point x="162" y="668"/>
			<point x="162" y="628" type="curve" smooth="yes"/>
			<point x="162" y="588"/>
			<point x="190" y="566"/>
		</contour>
		<contour>
			<point x="64" y="730" type="line"/>
			<point x="208" y="730" type="line"/>
			<point x="348" y="852" type="line"/>
			<point x="231" y="852" type="line"/>
			<point x="152" y="808" type="line"/>
			<point x="149" y="808" type="line"/>
			<point x="96" y="852" type="line"/>
			<point x="-12" y="852" type="line"/>
		</contour>
	</outline>
	<anchor name="_aboveLC" x="100" y="522"/>
</glyph>
<glyph name="dieresistilde" format="2">
	<outline>
		<contour>
			<point x="4" y="566" type="curve" smooth="yes"/>
			<point x="52" y="566"/>
			<point x="88" y="606"/>
			<point x="88" y="648" type="curve" smooth="yes"/>
			<point x="88" y="686"/>
			<point x="60" y="708"/>
			<point x="26" y="708" type="curve" smooth="yes"/>
			<point x="-22" y="708"/>
			<point x="-58" y="668"/>
			<point x="-58" y="628" type="curve" smooth="yes"/>
			<point x="-58" y="588"/>
			<point x="-30" y="566"/>
		</contour>
		<contour>
			<point x="224" y="566" type="curve" smooth="yes"/>
			<point x="272" y="566"/>
			<point x="308" y="606"/>
			<point x="308" y="648" type="curve" smooth="yes"/>
			<point x="308" y="686"/>
			<point x="280" y="708"/>
			<point x="246" y="708" type="curve" smooth="yes"/>
			<point x="198" y="708"/>
			<point x="162" y="668"/>
			<point x="162" y="628" type="curve" smooth="yes"/>
			<point x="162" y="588"/>
			<point x="190" y="566"/>
		</contour>
		<contour>
			<point x="216" y="748" type="curve" smooth="yes"/>
			<point x="264" y="748"/>
			<point x="306" y="782"/>
			<point x="326" y="868" type="curve"/>
			<point x="252" y="876" type="line"/>
			<point x="242" y="850"/>
			<point x="230" y="840"/>
			<point x="208" y="840" type="curve" smooth="yes"/>
			<point x="174" y="840"/>
			<point x="154" y="882"/>
			<point x="94" y="882" type="curve" smooth="yes"/>
			<point x="46" y="882"/>
			<point x="4" y="848"/>
			<point x="-16" y="762" type="curve"/>
			<point x="58" y="754" type="line"/>
			<point x="68" y="780"/>
			<point x="80" y="790"/>
			<point x="102" y="790" type="curve" smooth="yes"/>
			<point x="136" y="790"/>
			<point x="156" y="748"/>
		</contour>
	</outline>
	<anchor name="_aboveLC" x="100" y="522"/>
</glyph>
<glyph name="eacute.sups" format="2">
	<advance width="336"/>
	<outline>
		<contour>
			<point x="230" y="750" type="line"/>
			<point x="310" y="750" type="line"/>
			<point x="440" y="862" type="line"/>
			<point x="430" y="880" type="line"/>
			<point x="310" y="880" type="line"/>
		</contour>
		<component base="e.sups"/>
	</outline>
</glyph>
<glyph name="egrave.sups" format="2">
	<advance width="336"/>
	<outline>
		<contour>
			<point x="250" y="750" type="line"/>
			<point x="330" y="750" type="line"/>
			<point x="300" y="880" type="line"/>
			<point x="180" y="880" type="line"/>
			<point x="170" y="862" type="line"/>
		</contour>
		<component base="e.sups"/>
	</outline>
</glyph>
<glyph name="five.cap" format="2">
	<advance width="520"/>
	<outline>
		<contour>
			<point x="208" y="-12" type="curve" smooth="yes"/>
			<point x="340" y="-12"/>
			<point x="470" y="86"/>
			<point x="470" y="246" type="curve" smooth="yes"/>
			<point x="470" y="358"/>
			<point x="397" y="418"/>
			<point x="302" y="418" type="curve" smooth="yes"/>
			<point x="284" y="418"/>
			<point x="268" y="416"/>
			<point x="250" y="408" type="curve"/>
			<point x="280" y="516" type="line"/>
			<point x="500" y="516" type="line"/>
			<point x="526" y="650" type="line"/>
			<point x="168" y="650" type="line"/>
			<point x="88" y="320" type="line"/>
			<point x="146" y="272" type="line"/>
			<point x="190" y="296"/>
			<point x="204" y="300"/>
			<point x="234" y="300" type="curve" smooth="yes"/>
			<point x="281" y="300"/>
			<point x="308" y="272"/>
			<point x="308" y="220" type="curve" smooth="yes"/>
			<point x="308" y="153"/>
			<point x="262" y="116"/>
			<point x="210" y="116" type="curve" smooth="yes"/>
			<point x="166" y="116"/>
			<point x="126" y="140"/>
			<point x="92" y="186" type="curve"/>
			<point x="-8" y="104" type="line"/>
			<point x="54" y="18"/>
			<point x="132" y="-12"/>
		</contour>
	</outline>
</glyph>
<glyph name="lenis.cap" format="2">
	<advance width="180"/>
	<outline>
		<contour>
			<point x="74" y="386" type="line"/>
			<point x="178" y="394"/>
			<point x="252" y="450"/>
			<point x="252" y="548" type="curve" smooth="yes"/>
			<point x="252" y="614"/>
			<point x="214" y="664"/>
			<point x="92" y="666" type="curve"/>
			<point x="68" y="582" type="line"/>
			<point x="116" y="578"/>
			<point x="134" y="550"/>
			<point x="134" y="524" type="curve" smooth="yes"/>
			<point x="134" y="488"/>
			<point x="117" y="460"/>
			<point x="70" y="448" type="curve"/>
		</contour>
	</outline>
</glyph>
<glyph name="one.cap" format="2">
	<advance width="520"/>
	<outline>
		<contour>
			<point x="16" y="0" type="line"/>
			<point x="416" y="0" type="line"/>
			<point x="442" y="128" type="line"/>
			<point x="330" y="128" type="line"/>
			<point x="436" y="650" type="line"/>
			<point x="318" y="650" type="line"/>
			<point x="268" y="620"/>
			<point x="222" y="602"/>
			<point x="148" y="590" type="curve"/>
			<point x="128" y="490" type="line"/>
			<point x="244" y="490" type="line"/>
			<point x="170" y="128" type="line"/>
			<point x="42" y="128" type="line"/>
		</contour>
	</outline>
</glyph>
<glyph name="seven.onum" format="2">
	<advance width="490"/>
	<outline>
		<contour>
			<point x="64" y="-80" type="curve"/>
			<point x="228" y="-80" type="line"/>
			<point x="266" y="104"/>
			<point x="318" y="306"/>
			<point x="506" y="480" type="curve"/>
			<point x="526" y="580" type="line"/>
			<point x="102" y="580" type="line"/>
			<point x="76" y="446" type="line"/>
			<point x="322" y="446" type="line"/>
			<point x="198" y="320"/>
			<point x="124" y="146"/>
		</contour>
	</outline>
</glyph>
<glyph name="they" format="2">
	<advance width="1060"/>
	<outline>
		<contour>
			<point x="370" y="-12" type="curve" smooth="yes"/>
			<point x="507" y="-12"/>
			<point x="583" y="78"/>
			<point x="615" y="240" type="curve" smooth="yes"/>
			<point x="629" y="309"/>
			<point x="621" y="424"/>
			<point x="629" y="498" type="curve"/>
			<point x="591" y="504"/>
			<point x="516" y="510"/>
			<point x="460" y="510" type="curve" smooth="yes"/>
			<point x="242" y="510"/>
			<point x="26" y="329"/>
			<point x="26" y="111" type="curve" smooth="yes"/>
			<point x="26" y="59"/>
			<point x="39" y="15"/>
			<point x="49" y="-8" type="curve"/>
			<point x="199" y="40" type="line"/>
			<point x="195" y="64"/>
			<point x="192" y="81"/>
			<point x="192" y="102" type="curve" smooth="yes"/>
			<point x="192" y="249"/>
			<point x="308" y="394"/>
			<point x="464" y="394" type="curve"/>
			<point x="460" y="348"/>
			<point x="451" y="264"/>
			<point x="438" y="198" type="curve" smooth="yes"/>
			<point x="425" y="135"/>
			<point x="412" y="118"/>
			<point x="384" y="118" type="curve" smooth="yes"/>
			<point x="371" y="118"/>
			<point x="363" y="123"/>
			<point x="363" y="134" type="curve" smooth="yes"/>
			<point x="363" y="170"/>
			<point x="389" y="199"/>
			<point x="598" y="200" type="curve" smooth="yes"/>
			<point x="947" y="202"/>
			<point x="1027" y="298"/>
			<point x="1027" y="411" type="curve" smooth="yes"/>
			<point x="1027" y="471"/>
			<point x="983" y="512"/>
			<point x="904" y="512" type="curve" smooth="yes"/>
			<point x="763" y="512"/>
			<point x="622" y="365"/>
			<point x="622" y="164" type="curve" smooth="yes"/>
			<point x="622" y="43"/>
			<point x="705" y="-12"/>
			<point x="820" y="-12" type="curve" smooth="yes"/>
			<point x="881" y="-12"/>
			<point x="937" y="14"/>
			<point x="973" y="38" type="curve"/>
			<point x="937" y="140" type="line"/>
			<point x="908" y="121"/>
			<point x="889" y="118"/>
			<point x="862" y="118" type="curve" smooth="yes"/>
			<point x="823" y="118"/>
			<point x="796" y="142"/>
			<point x="796" y="199" type="curve" smooth="yes"/>
			<point x="796" y="287"/>
			<point x="842" y="382"/>
			<point x="878" y="382" type="curve" smooth="yes"/>
			<point x="894" y="382"/>
			<point x="901" y="375"/>
			<point x="901" y="364" type="curve" smooth="yes"/>
			<point x="901" y="335"/>
			<point x="875" y="315"/>
			<point x="662" y="310" type="curve" smooth="yes"/>
			<point x="323" y="302"/>
			<point x="238" y="210"/>
			<point x="238" y="95" type="curve" smooth="yes"/>
			<point x="238" y="29"/>
			<point x="290" y="-12"/>
		</contour>
	</outline>
</glyph>
<glyph name="two.cap" format="2">
	<advance width="520"/>
	<outline>
		<contour>
			<point x="-14" y="0" type="line"/>
			<point x="424" y="0" type="line"/>
			<point x="450" y="134" type="line"/>
			<point x="344" y="134" type="line" smooth="yes"/>
			<point x="316" y="134"/>
			<point x="270" y="130"/>
			<point x="238" y="126" type="curve"/>
			<point x="384" y="246"/>
			<point x="498" y="352"/>
			<point x="498" y="486" type="curve" smooth="yes"/>
			<point x="498" y="592"/>
			<point x="420" y="662"/>
			<point x="296" y="662" type="curve" smooth="yes"/>
			<point x="234" y="662"/>
			<point x="172" y="634"/>
			<point x="110" y="580" type="curve"/>
			<point x="182" y="490" type="line"/>
			<point x="216" y="516"/>
			<point x="242" y="536"/>
			<point x="276" y="536" type="curve" smooth="yes"/>
			<point x="318" y="536"/>
			<point x="342" y="510"/>
			<point x="342" y="470" type="curve" smooth="yes"/>
			<point x="342" y="362"/>
			<point x="200" y="244"/>
			<point x="6" y="100" type="curve"/>
		</contour>
	</outline>
</glyph>
<glyph name="yi.a" format="2">
	<advance width="276"/>
	<outline>
		<contour>
			<point x="126" y="566" type="curve" smooth="yes"/>
			<point x="170" y="566"/>
			<point x="204" y="606"/>
			<point x="204" y="650" type="curve" smooth="yes"/>
			<point x="204" y="692"/>
			<point x="178" y="714"/>
			<point x="146" y="714" type="curve" smooth="yes"/>
			<point x="102" y="714"/>
			<point x="68" y="674"/>
			<point x="68" y="630" type="curve" smooth="yes"/>
			<point x="68" y="588"/>
			<point x="94" y="566"/>
		</contour>
		<contour>
			<point x="286" y="566" type="curve" smooth="yes"/>
			<point x="330" y="566"/>
			<point x="364" y="606"/>
			<point x="364" y="650" type="curve" smooth="yes"/>
			<point x="364" y="692"/>
			<point x="338" y="714"/>
			<point x="306" y="714" type="curve" smooth="yes"/>
			<point x="262" y="714"/>
			<point x="228" y="674"/>
			<point x="228" y="630" type="curve" smooth="yes"/>
			<point x="228" y="588"/>
			<point x="254" y="566"/>
		</contour>
		<component base="dotlessi"/>
	</outline>
</glyph>
<glyph name="zhe.d" format="2">
	<advance width="750"/>
	<outline>
		<contour>
			<point x="-56" y="0" type="line"/>
			<point x="120" y="0" type="line"/>
			<point x="238" y="184" type="line"/>
			<point x="294" y="184" type="line"/>
			<point x="258" y="0" type="line"/>
			<point x="404" y="0" type="line"/>
			<point x="440" y="184" type="line"/>
			<point x="496" y="184" type="line"/>
			<point x="542" y="0" type="line"/>
			<point x="706" y="0" type="line"/>
			<point x="620" y="252" type="line"/>
			<point x="798" y="500" type="line"/>
			<point x="634" y="500" type="line"/>
			<point x="520" y="322" type="line"/>
			<point x="468" y="322" type="line"/>
			<point x="544" y="696" type="line"/>
			<point x="398" y="696" type="line"/>
			<point x="322" y="322" type="line"/>
			<point x="270" y="322" type="line"/>
			<point x="228" y="500" type="line"/>
			<point x="70" y="500" type="line"/>
			<point x="145" y="270" type="line"/>
		</contour>
	</outline>
</glyph>
